<svg width="113" height="114" viewBox="0 0 113 114" fill="none" xmlns="http://www.w3.org/2000/svg">
<path d="M0 0H113V114H0V0Z" fill="black"/>
<path d="M21.7623 14H21.8874V16.879L20.2602 18.5063L18.8832 20.2588L17.7567 22.0112L16.7553 24.1392L15.879 26.7679L15.5035 28.8959L15.3783 30.2728V32.5259L15.7539 35.1546L16.5049 37.7833L17.256 39.6609L18.5077 41.7889L19.6343 43.291L21.1364 44.9183L22.1378 45.9197L23.8903 47.1715L26.1434 48.4232L28.3966 49.2994L31.9015 50.3008L36.0323 51.6778L38.9113 52.9295L40.9141 53.9309L43.1673 55.1827L45.1701 56.4344L46.9225 57.6862L49.0505 59.3135L50.8029 60.8156L52.8058 62.6932L54.0575 64.0701L54.9337 65.0715L55.0589 65.4471H55.3093L56.6862 67.1995L57.5624 68.3261L58.4386 69.5778L59.1897 70.7044V70.9548H59.44L60.5666 72.9576L61.4429 74.4597L62.945 77.7142L64.1967 80.9688L64.9478 83.2219V84.3485L64.3219 85.7255L63.9464 86.9772L63.4457 87.2276L63.1953 86.2262L62.6946 83.8478L61.4429 80.3429L60.1911 77.3387L59.1897 75.3359L57.8128 72.9576L56.6862 71.0799V70.8296H56.4358L55.0589 68.8268L53.682 67.1995L52.5554 65.8226L52.1799 65.4471V65.1967H51.9295L51.0533 64.1953L49.1757 62.4428L47.7987 61.3163L45.7959 59.689L43.5428 58.1869L41.2896 56.81L38.4106 55.3079L35.0309 53.8057L30.9001 52.4288L27.27 51.4274L24.8917 50.426L22.6385 49.1743L21.1364 48.0477L19.5091 46.6708L18.5077 45.6694L16.8804 43.5414L15.7539 41.7889L14.7525 39.7861L13.8762 37.4078L13.3755 35.405L13 32.7763V30.0224L13.2504 27.7693L13.8762 25.2658L14.6273 23.1378L15.7539 20.7595L17.0056 18.7567L18.3825 17.1294L20.2602 15.2518L21.6371 14.1252L21.7623 14Z" fill="white"/>
<path d="M21.7623 20.0084H22.0127L21.8875 23.5133L20.8861 25.6413L20.2602 27.3938L19.8847 29.021L19.7595 30.5231V32.2756L20.135 34.5288L20.7609 36.6567L22.1378 39.2854L23.3896 40.9127L24.5162 42.1645L26.6441 43.6666L28.647 44.668L30.6498 45.419L34.6554 46.5456L37.5344 47.547L41.0393 49.0491L43.5428 50.3008L46.6722 52.1785L48.1743 53.1799L49.9268 54.4316L51.554 55.6834L53.3065 57.1855L54.5582 58.3121L57.6876 61.4415L58.8142 62.8184L59.1897 63.1939V63.4443H59.4401L61.1925 65.8226L62.945 68.3261L64.5723 71.0799L66.0744 73.8338L67.8268 77.8394L67.952 78.5905L66.8254 80.4681L66.5751 80.8436H66.3247L65.1981 77.7142L63.4457 73.8338L61.8184 70.9548L60.9422 69.5778L59.3149 67.1995L58.0631 65.6974L57.0617 64.3205L55.9352 63.0687L54.5582 61.5666L52.6806 59.689L51.6792 58.8128L50.0519 57.4358L47.5484 55.5582L45.0449 53.9309L42.4162 52.4288L40.4134 51.4274L37.5344 50.0505L34.405 48.9239L28.8973 47.2966L26.3938 46.2952L24.5162 45.1687L23.2644 44.0421L22.263 43.1659L21.0113 41.7889L19.7595 39.9113L18.7581 37.9085L18.1322 36.2812L17.5063 33.4022V29.2714L18.007 26.7679L18.6329 24.8903L19.6343 22.8875L20.7609 21.0098L21.7623 20.0084Z" fill="white"/>
<path d="M91.7355 14.1251L92.2362 14.2503L94.1138 15.8776L95.6159 17.3797L97.118 19.3825L98.2446 21.2601L99.3712 23.7636L100.247 26.6427L100.623 29.1462V33.1518L100.373 35.1546L99.7467 37.7833L98.7453 40.2868L97.6187 42.4147L96.4921 44.042L95.1152 45.6693L93.2376 47.5469L91.2348 49.049L89.3571 50.1756L87.4795 51.0518L84.8508 51.9281L81.7214 52.8043L78.3417 53.9309L74.962 55.433L72.5836 56.6847L69.5794 58.5624L67.827 59.8141L66.0745 61.191L64.4473 62.568L62.82 64.0701L62.3193 63.8197L61.3179 62.4428V62.0673L62.0689 61.5666L63.8214 59.9393L65.1983 58.8127L67.2011 57.3106L69.0787 56.0589L71.3319 54.6819L74.4613 53.0546L77.7158 51.6777L80.2193 50.8015L83.9746 49.6749L85.9774 49.049L87.4795 48.4232L89.6075 47.2966L91.3599 46.0448L93.2376 44.2924L94.239 43.1658L95.3656 41.5385L96.4921 39.5357L97.2432 37.6581L97.9942 34.9042L98.2446 33.4021V29.5217L97.8691 27.0182L97.2432 24.8902L96.6173 23.2629L95.4907 21.2601L93.9886 19.1321L93.2376 18.2559L92.2362 17.3797L91.7355 16.7538V14.1251Z" fill="white"/>
<path d="M91.7351 20.1335L92.2358 20.2587L93.2372 21.5105L94.2386 23.1378L95.1148 24.8902L95.8659 27.3937L96.2414 29.5217V33.0266L95.7407 35.6553L94.8645 38.1588L93.4876 40.7875L92.1106 42.4148L90.9841 43.6665L89.6071 44.7931L88.3554 45.6693L86.2274 46.7959L82.8477 47.9225L78.9672 49.049L75.963 50.1756L73.4595 51.3022L70.956 52.554L68.2022 54.1812L65.3231 56.184L63.3203 57.8113L61.5679 59.1882L60.3161 60.3148L59.9406 60.6903L58.814 59.6889L58.4385 59.3134L58.5637 58.8127L60.4413 57.0603L61.8182 55.9337L63.6958 54.4316L66.5749 52.4288L68.4525 51.3022L70.4553 50.1756L72.5833 49.049L75.8378 47.6721L78.9672 46.5455L83.8491 45.1686L85.7267 44.4176L87.1036 43.6665L88.8561 42.4148L89.482 41.7889H89.7323L89.9827 41.2882L90.9841 40.1616L92.2358 38.1588L93.2372 35.9056L93.7379 33.9028L93.8631 33.1518V29.3965L93.3624 27.1434L92.361 24.765L91.8603 23.7636L91.7351 22.6371V20.1335Z" fill="white"/>
<path d="M38.6608 57.9365L39.1615 58.0617L41.1643 59.0631L43.4175 60.5652L45.7958 62.3177L47.2979 63.6946L48.2993 64.5708L48.8 64.9463V65.1967L49.3007 65.447L51.1784 67.4498L52.6805 69.2023L54.0574 70.9548L54.9336 72.2065L56.1854 74.0841L56.9364 75.4611L58.1882 77.8394L59.6903 81.3443L60.6917 84.3485L61.4427 87.4779L62.1938 92.1094L62.319 93.1108L62.4441 95.6143V98.1178L62.1938 99.3696L61.1924 101.372L60.4413 101.998H60.191L60.0658 95.2388L59.8154 91.9842L59.1896 88.2289L58.3133 84.8492L57.1868 81.4695L56.1854 79.2163L54.5581 75.9618L53.5567 74.3345L52.3049 72.582L50.8028 70.5792L49.3007 68.8268L48.9252 68.4513V68.2009L48.4245 67.9505V67.7002L47.9238 67.4498L45.7958 65.3219L44.9196 64.696V64.4456L44.4189 64.1953L42.4161 62.6932L40.2881 61.3163L38.786 60.44L38.6608 60.1897L38.5356 58.1869L38.6608 57.9365Z" fill="white"/>
<path d="M38.6611 62.9436L39.287 63.194L41.0395 64.3205L42.7919 65.5723L44.4192 66.9492L46.422 68.8268L47.5486 69.9534L48.4248 70.9548L49.6766 72.4569L51.3038 74.7101L52.9311 77.3388L54.6836 80.7185L55.9353 83.9731L56.9367 87.3528L57.5626 90.4822L57.9381 93.9871V103.125L57.6878 103.25H55.8102L55.5598 93.8619L55.1843 90.7325L54.4332 87.1024L53.557 84.2234L51.9297 80.4681L50.5528 77.8395L49.1759 75.7115L47.9241 73.959L46.7975 72.5821L44.9199 70.5793L43.6681 69.3275L42.2912 68.201L40.2884 66.5737L38.7863 65.5723L38.6611 65.3219V62.9436Z" fill="white"/>
<path d="M38.6611 68.2009L39.1618 68.3261L40.6639 69.5779L42.0409 70.7044L42.9171 71.4555V71.7058H43.1674L44.0437 72.7072L45.4206 74.2093L46.7975 75.9618L48.55 78.5905L49.4262 80.0926L50.4276 82.0954L51.1787 83.7227L52.1801 86.6017L52.9311 89.8563L53.4318 92.8605L53.557 94.3626V102.123L52.9311 101.748L52.0549 100.621L51.429 99.2444L51.3038 97.9927L51.1787 94.1122L50.8031 91.2332L50.1773 88.229L48.9255 84.4737L47.6738 81.7199L46.1717 79.0912L44.5444 76.838L43.1674 75.2107L42.0409 73.959L40.2884 72.2065L39.1618 71.3303L38.7863 71.08L38.6611 70.7044V68.2009Z" fill="white"/>
<path d="M69.2036 24.2644L69.8295 24.5148L71.0812 25.6413L72.0826 26.5176L73.084 27.519L74.3358 29.1462L75.8379 31.6497L76.9645 34.1533L77.7155 36.9071L78.0911 39.4106V43.5414L77.9659 44.5428L76.8393 45.0435L75.5876 45.419L75.7127 43.6666V39.4106L75.3372 37.0323L74.7113 35.0295L73.7099 32.7763L72.7085 31.0239L71.4568 29.2714L69.2036 27.0183V24.2644Z" fill="white"/>
<path d="M44.1688 24.2644H44.4192V27.1434L42.9171 28.5204L41.415 30.398L40.4136 32.0253L39.4122 34.0281L38.5359 36.4064L38.0352 39.1603L37.9101 40.412V42.2896L38.2856 45.5442L37.159 45.1687L35.9073 44.5428L35.6569 44.1673L35.5317 42.0393V40.5372L35.7821 38.1589L36.2828 35.7805L37.159 33.277L38.1604 31.2742L39.4122 29.1462L40.5388 27.7693L41.9157 26.2672L42.7919 25.391L43.7933 24.5148L44.1688 24.2644Z" fill="white"/>
<path d="M69.2036 30.1476L69.7043 30.3979L70.7057 31.6497L71.9575 33.6525L72.5833 35.0294L73.2092 36.907L73.7099 39.5357V43.1658L73.3344 45.5441L72.9589 46.5455L70.7057 47.6721L69.9547 47.7973L70.205 47.1714L70.8309 45.6693L71.3316 43.1658V39.6609L70.9561 37.7833L70.3302 35.9056L69.454 34.028L69.3288 33.6525L69.2036 32.0252V30.1476Z" fill="white"/>
<path d="M44.1689 30.2728H44.4192V33.7777L43.1675 36.4064L42.5416 38.6596L42.2912 40.6624V42.4148L42.6668 44.7932L43.1675 46.4204L43.6682 47.547L43.543 47.9225L41.0395 46.6708L40.5388 46.0449L40.1633 44.5428L40.0381 43.4162V39.5358L40.4136 37.2826L41.2898 34.654L42.4164 32.526L43.6682 30.7735L44.1689 30.2728Z" fill="white"/>
<path d="M74.8365 57.8114L75.0869 57.9366V60.3149L72.0827 62.1925L69.8295 63.8198L67.7015 65.5723L66.1994 66.9492L65.4484 67.8254L64.9477 67.5751L64.0715 66.3233L63.9463 65.8226L64.5722 65.1967H64.8225V64.9464L65.8239 64.0702L67.0757 62.9436L69.2037 61.3163L71.2065 59.9394L73.0841 58.8128L74.8365 57.8114Z" fill="white"/>
<path d="M74.8366 62.8184L75.087 63.0687V64.4456L74.9618 65.5722L72.8338 67.0743L71.5821 68.0757L69.8296 69.5778L67.7016 71.7058L67.2009 71.4555L66.3247 69.9534L66.7002 69.3275L68.5779 67.4498L71.3317 65.1967L73.8352 63.4442L74.8366 62.8184Z" fill="white"/>
<path d="M74.8364 68.0757L75.0868 68.5764V70.0785L74.9616 70.9547L73.2091 72.4568L72.2077 73.333L71.3315 74.3344L69.9546 75.8366L69.579 76.3373H69.3287L68.5776 74.4596V73.9589L69.7042 72.582L71.4567 70.8295L72.8336 69.703L74.4609 68.326L74.8364 68.0757Z" fill="white"/>
</svg>
