<?xml version="1.0" encoding="UTF-8"?>
<svg version="1.1" viewBox="0 0 1780 936" width="445" height="234" xmlns="http://www.w3.org/2000/svg">
<path transform="translate(0)" d="m0 0h1780v936h-1780z" fill="#FEFEFE"/>
<path transform="translate(824,406)" d="m0 0h25l84 1 11 4 6 7 4 11 1 12v50l-3 10-7 6-6 4 13 19 9 12v2h-50l-7-10-9-15-3-4-9-2v31h-45v-57l-1-64-12-13z" fill="#3B3836"/>
<path transform="translate(985,406)" d="m0 0 105 1 11 2 7 6 6 12 1 11v106h-45v-18l-2-7-8-7-9-9-7-5v46h-44l-1-121-13-13z" fill="#3B3836"/>
<path transform="translate(231,105)" d="m0 0h1v23l-13 13-11 14-9 14-8 17-7 21-3 17-1 11v18l3 21 6 21 6 15 10 17 9 12 12 13 8 8 14 10 18 10 18 7 28 8 33 11 23 10 16 8 18 10 16 10 14 10 17 13 14 12 16 15 10 11 7 8 1 3h2l11 14 7 9 7 10 6 9v2h2l9 16 7 12 12 26 10 26 6 18v9l-5 11-3 10-4 2-2-8-4-19-10-28-10-24-8-16-11-19-9-15v-2h-2l-11-16-11-13-9-11-3-3v-2h-2l-7-8-15-14-11-9-16-13-18-12-18-11-23-12-27-12-33-11-29-8-19-8-18-10-12-9-13-11-8-8-13-17-9-14-8-16-7-19-4-16-3-21v-22l2-18 5-20 6-17 9-19 10-16 11-13 15-15 11-9z" fill="#3B3836"/>
<path transform="translate(1301,407)" d="m0 0h58l1 43 11 8 12 8h2v-58l1-1h43l1 1v136h-44l-1-1v-42l-1-3-12-7-12-8-1 4v57h-44l-1-63v-58l-12-12z" fill="#3B3836"/>
<path transform="translate(1454,407)" d="m0 0h57l1 2v96l1 7h20l1-1 1-103 1-1h44l1 2v103l9 1 1 1v30h-40l-4-2-4-6-4 2-7 5-14 2h-19l-10-2-10-5-6-7-4-11-1-5-1-80v-14l-5-2-8-9z" fill="#3B3836"/>
<path transform="translate(1144,406)" d="m0 0 123 1 1 7v25l-44 1-20 1-1 32v16l1 24 5 2h14l4-3 1-4v-9l-9-8-5-4-1-18v-17l8 4 17 11 27 18 7 5v28l-4 13-3 5-9 6-8 2-47 1-17-1-11-3-10-9-3-7-2-12-1-89-14-16z" fill="#3B3836"/>
<path transform="translate(231,153)" d="m0 0h2l-1 28-8 17-5 14-3 13-1 12v14l3 18 5 17 11 21 10 13 9 10 17 12 16 8 16 6 32 9 23 8 28 12 20 10 25 15 12 8 14 10 13 10 14 12 10 9 25 25 9 11 3 3v2h2l14 19 14 20 13 22 12 22 14 32 1 6-9 15-2 3h-2l-9-25-14-31-13-23-7-11-13-19-10-12-8-11-9-10-11-12-15-15-8-7-13-11-20-15-20-13-21-12-16-8-23-11-25-9-44-13-20-8-15-9-10-9-8-7-10-11-10-15-8-16-5-13-5-23v-33l4-20 5-15 8-16 9-15z" fill="#3B3836"/>
<path transform="translate(790,106)" d="m0 0 4 1 15 13 12 12 12 16 9 15 9 20 7 23 3 20v32l-2 16-5 21-8 20-9 17-9 13-11 13-15 15-16 12-15 9-15 7-21 7-25 7-27 9-27 12-19 10-24 15-14 10-14 11-13 11-13 12-4-2-8-11v-3l6-4 14-13 11-9 16-12 15-10 18-11 25-13 26-11 20-7 30-9 16-5 12-5 17-9 14-10 15-14 8-9 9-13 9-16 6-15 6-22 2-12v-31l-3-20-5-17-5-13-9-16-12-17-6-7-8-7-4-5z" fill="#3B3836"/>
<path transform="translate(790,154)" d="m0 0 4 1 8 10 8 13 7 14 6 20 3 17v28l-4 21-7 20-11 21-11 13-9 10-11 9-10 7-17 9-27 9-31 9-24 9-20 9-20 10-22 13-23 16-16 13-14 11-10 9-3 3-9-8-3-3 1-4 15-14 11-9 15-12 23-16 15-9 16-9 17-9 26-11 25-9 39-11 15-6 11-6 14-10 5-5h2l2-4 8-9 10-16 8-18 4-16 1-6v-30l-4-18-8-19-4-8-1-9z" fill="#3B3836"/>
<path transform="translate(366,456)" d="m0 0 4 1 16 8 18 12 19 14 12 11 8 7 4 3v2l4 2 15 16 12 14 11 14 7 10 10 15 6 11 10 19 12 28 8 24 6 25 6 37 1 8 1 20v20l-2 10-8 16-6 5h-2l-1-54-2-26-5-30-7-27-9-27-8-18-13-26-8-13-10-14-12-16-12-14-3-3v-2l-4-2v-2l-4-2-17-17-7-5v-2l-4-2-16-12-17-11-12-7-1-2-1-16z" fill="#3B3836"/>
<path transform="translate(366,496)" d="m0 0 5 2 14 9 14 10 13 11 16 15 9 9 7 8 10 12 13 18 13 21 14 27 10 26 8 27 5 25 3 28v73l-2 1h-15l-2-75-3-25-6-29-7-23-13-30-11-21-11-17-10-14-9-11-15-16-10-10-11-9-16-13-12-8-1-2z" fill="#3B3836"/>
<path transform="translate(366,538)" d="m0 0 4 1 12 10 11 9 7 6v2h2l7 8 11 12 11 14 14 21 7 12 8 16 6 13 8 23 6 26 4 24 1 12v62l-5-3-7-9-5-11-1-10-1-31-3-23-5-24-10-30-10-22-12-21-13-18-11-13-9-10-14-14-9-7-3-2-1-3z" fill="#3B3836"/>
<path transform="translate(1201,602)" d="m0 0h17l9 4 7 7 5 11 1 4v34l-3 10-6 9-9 6-9 2-12-1-10-5-7-8-4-10-1-6v-26l2-11 5-10 8-7z" fill="#3B3836"/>
<path transform="translate(1091,603)" d="m0 0h36l10 4 6 8 2 6v16l-3 8-7 6 1 6 12 29v2h-17l-3-2-10-25-2-4h-7v30l-17 1-1-1z" fill="#3B3836"/>
<path transform="translate(1368,603)" d="m0 0h37l8 3 8 9 3 7v17l-5 10-7 6-6 2-20 2-1 28-16 1-1-1z" fill="#3B3836"/>
<path transform="translate(610,187)" d="m0 0 5 2 10 9 8 7 8 8 10 13 12 20 9 20 6 22 3 20v33l-1 8-9 4-10 3 1-14v-34l-3-19-5-16-8-18-8-14-10-14-18-18z" fill="#3B3836"/>
<path transform="translate(1021,601)" d="m0 0h9l12 3 9 8 4 11v6l-2 1h-14l-3-9-6-4h-6l-6 4-3 7-1 10v15l2 11 3 6 4 3h10l4-1v-14l-1-2-4-1-5 2-2-3v-10l1-1h29v35l-5 5-12 5-12 1-10-2-8-4-6-7-4-9-2-9v-25l2-10 4-10 5-6 10-5z" fill="#3B3836"/>
<path transform="translate(410,187)" d="m0 0h2v23l-12 11-12 15-8 13-8 16-7 19-4 22-1 10v15l3 26-9-3-10-5-2-3-1-17v-12l2-19 4-19 7-20 8-16 10-17 9-11 11-12 7-7 8-7z" fill="#3B3836"/>
<path transform="translate(1276,603)" d="m0 0h17l1 69 5 1h8l6-1 1-69h17l1 1-1 67-4 8-7 6-8 3h-18l-10-5-6-7-2-6z" fill="#3B3836"/>
<path transform="translate(610,234)" d="m0 0 4 2 8 10 10 16 5 11 5 15 4 21v29l-3 19-3 8-18 9-6 1 2-5 5-12 4-20v-28l-3-15-5-15-7-15-1-3-1-13z" fill="#3B3836"/>
<path transform="translate(410,235)" d="m0 0h2v28l-10 21-5 18-2 16v14l3 19 4 13 4 9-1 3-20-10-4-5-3-12-1-9v-31l3-18 7-21 9-17 10-14z" fill="#3B3836"/>
<path transform="translate(655,455)" d="m0 0 2 1v19l-24 15-18 13-17 14-12 11-6 7-4-2-7-10-1-4 5-5h2v-2l8-7 10-9 17-13 16-11 15-9z" fill="#3B3836"/>
<path transform="translate(844,637)" d="m0 0h132v11l-2 1h-130z" fill="#3B3836"/>
<path transform="translate(1448,636)" d="m0 0 131 1-1 12h-130z" fill="#3B3836"/>
<path transform="translate(655,495)" d="m0 0 2 2v11l-1 9-17 12-10 8-14 12-17 17-4-2-7-12 3-5 15-15 22-18 20-14z" fill="#3B3836"/>
<path transform="translate(1206,616)" d="m0 0h7l5 3 4 6 1 4v31l-3 9-6 5h-9l-5-5-3-6-1-4v-25l2-10 3-5z" fill="#FEFEFE"/>
<path transform="translate(884,437)" d="m0 0h19l6 2 1 4v38l-3 3-7 1h-16l-1-1v-46z" fill="#FEFEFE"/>
<path transform="translate(655,537)" d="m0 0 2 4v12l-1 7-14 12-8 7-7 8-11 12-3 4h-2l-6-15v-4l9-11 14-14 11-9 13-11z" fill="#3B3836"/>
<path transform="translate(1044,437)" d="m0 0h18l8 1 1 27v27l-5-2-17-17-5-4z" fill="#FEFEFE"/>
<path transform="translate(1387,617)" d="m0 0 13 1 5 3 2 7-1 10-5 5h-15l-1-1v-23z" fill="#FEFEFE"/>
<path transform="translate(1111,617)" d="m0 0 11 1 5 4 1 2v12l-6 6h-12l-2-3v-19z" fill="#FEFEFE"/>
</svg>
